<mxfile host="www.draw.io" modified="2019-11-22T08:57:36.481Z" agent="Mozilla/5.0 (Windows NT 10.0; Win64; x64) AppleWebKit/537.36 (KHTML, like Gecko) Chrome/78.0.3904.97 Safari/537.36" etag="dcKC64A9npxC0vcUSedT" version="12.2.9" type="github" pages="1">
  <diagram id="WlpwBIbsUezFIb3I0WMP" name="Page-1">
    <mxGraphModel dx="1102" dy="533" grid="1" gridSize="10" guides="1" tooltips="1" connect="1" arrows="1" fold="1" page="1" pageScale="1" pageWidth="827" pageHeight="1169" math="0" shadow="0">
      <root>
        <mxCell id="0"/>
        <mxCell id="1" parent="0"/>
        <mxCell id="q1HZqBqBd3Bs0f9Zx4c5-1" value="IPv4 头部" style="rounded=0;whiteSpace=wrap;html=1;" vertex="1" parent="1">
          <mxGeometry x="70" y="160" width="100" height="80" as="geometry"/>
        </mxCell>
        <mxCell id="q1HZqBqBd3Bs0f9Zx4c5-2" value="UDP 头部" style="rounded=0;whiteSpace=wrap;html=1;" vertex="1" parent="1">
          <mxGeometry x="170" y="160" width="40" height="80" as="geometry"/>
        </mxCell>
        <mxCell id="q1HZqBqBd3Bs0f9Zx4c5-3" value="DNS 固定头部" style="rounded=0;whiteSpace=wrap;html=1;" vertex="1" parent="1">
          <mxGeometry x="210" y="160" width="90" height="80" as="geometry"/>
        </mxCell>
        <mxCell id="q1HZqBqBd3Bs0f9Zx4c5-4" value="20字节&lt;br&gt;（无选项）" style="text;html=1;strokeColor=none;fillColor=none;align=center;verticalAlign=middle;whiteSpace=wrap;rounded=0;" vertex="1" parent="1">
          <mxGeometry x="70" y="250" width="100" height="20" as="geometry"/>
        </mxCell>
        <mxCell id="q1HZqBqBd3Bs0f9Zx4c5-5" value="8字节" style="text;html=1;strokeColor=none;fillColor=none;align=center;verticalAlign=middle;whiteSpace=wrap;rounded=0;" vertex="1" parent="1">
          <mxGeometry x="140" y="250" width="100" height="20" as="geometry"/>
        </mxCell>
        <mxCell id="q1HZqBqBd3Bs0f9Zx4c5-6" value="12 字节" style="text;html=1;strokeColor=none;fillColor=none;align=center;verticalAlign=middle;whiteSpace=wrap;rounded=0;" vertex="1" parent="1">
          <mxGeometry x="210" y="250" width="100" height="20" as="geometry"/>
        </mxCell>
        <mxCell id="q1HZqBqBd3Bs0f9Zx4c5-7" value="问题区段" style="rounded=0;whiteSpace=wrap;html=1;" vertex="1" parent="1">
          <mxGeometry x="300" y="160" width="90" height="80" as="geometry"/>
        </mxCell>
        <mxCell id="q1HZqBqBd3Bs0f9Zx4c5-8" value="回答区段" style="rounded=0;whiteSpace=wrap;html=1;" vertex="1" parent="1">
          <mxGeometry x="390" y="160" width="90" height="80" as="geometry"/>
        </mxCell>
        <mxCell id="q1HZqBqBd3Bs0f9Zx4c5-9" value="授权区段" style="rounded=0;whiteSpace=wrap;html=1;" vertex="1" parent="1">
          <mxGeometry x="480" y="160" width="90" height="80" as="geometry"/>
        </mxCell>
        <mxCell id="q1HZqBqBd3Bs0f9Zx4c5-10" value="额外信息区段" style="rounded=0;whiteSpace=wrap;html=1;" vertex="1" parent="1">
          <mxGeometry x="570" y="160" width="90" height="80" as="geometry"/>
        </mxCell>
        <mxCell id="q1HZqBqBd3Bs0f9Zx4c5-11" value="" style="endArrow=none;html=1;" edge="1" parent="1">
          <mxGeometry width="50" height="50" relative="1" as="geometry">
            <mxPoint x="300" y="280" as="sourcePoint"/>
            <mxPoint x="300" y="240" as="targetPoint"/>
          </mxGeometry>
        </mxCell>
        <mxCell id="q1HZqBqBd3Bs0f9Zx4c5-12" value="" style="endArrow=classic;startArrow=classic;html=1;" edge="1" parent="1">
          <mxGeometry width="50" height="50" relative="1" as="geometry">
            <mxPoint x="300" y="260" as="sourcePoint"/>
            <mxPoint x="660" y="260" as="targetPoint"/>
          </mxGeometry>
        </mxCell>
        <mxCell id="q1HZqBqBd3Bs0f9Zx4c5-13" value="" style="endArrow=none;html=1;" edge="1" parent="1">
          <mxGeometry width="50" height="50" relative="1" as="geometry">
            <mxPoint x="659.5" y="280" as="sourcePoint"/>
            <mxPoint x="659.5" y="240" as="targetPoint"/>
          </mxGeometry>
        </mxCell>
        <mxCell id="q1HZqBqBd3Bs0f9Zx4c5-15" value="可变长度" style="text;html=1;strokeColor=none;fillColor=none;align=center;verticalAlign=middle;whiteSpace=wrap;rounded=0;" vertex="1" parent="1">
          <mxGeometry x="460" y="270" width="50" height="20" as="geometry"/>
        </mxCell>
        <mxCell id="q1HZqBqBd3Bs0f9Zx4c5-16" value="" style="endArrow=none;html=1;" edge="1" parent="1">
          <mxGeometry width="50" height="50" relative="1" as="geometry">
            <mxPoint x="210" y="160" as="sourcePoint"/>
            <mxPoint x="210" y="120" as="targetPoint"/>
          </mxGeometry>
        </mxCell>
        <mxCell id="q1HZqBqBd3Bs0f9Zx4c5-17" value="" style="endArrow=classic;startArrow=classic;html=1;" edge="1" parent="1">
          <mxGeometry width="50" height="50" relative="1" as="geometry">
            <mxPoint x="210" y="140" as="sourcePoint"/>
            <mxPoint x="660" y="140" as="targetPoint"/>
          </mxGeometry>
        </mxCell>
        <mxCell id="q1HZqBqBd3Bs0f9Zx4c5-18" value="" style="endArrow=none;html=1;" edge="1" parent="1">
          <mxGeometry width="50" height="50" relative="1" as="geometry">
            <mxPoint x="659.5" y="160" as="sourcePoint"/>
            <mxPoint x="659.5" y="120" as="targetPoint"/>
          </mxGeometry>
        </mxCell>
        <mxCell id="q1HZqBqBd3Bs0f9Zx4c5-19" value="DNS消息体，使用 UDP 长度被限定为最大 512字节）" style="text;html=1;strokeColor=none;fillColor=none;align=center;verticalAlign=middle;whiteSpace=wrap;rounded=0;" vertex="1" parent="1">
          <mxGeometry x="260" y="110" width="350" height="20" as="geometry"/>
        </mxCell>
        <mxCell id="q1HZqBqBd3Bs0f9Zx4c5-20" value="" style="endArrow=none;html=1;" edge="1" parent="1">
          <mxGeometry width="50" height="50" relative="1" as="geometry">
            <mxPoint x="170" y="118" as="sourcePoint"/>
            <mxPoint x="170" y="78" as="targetPoint"/>
          </mxGeometry>
        </mxCell>
        <mxCell id="q1HZqBqBd3Bs0f9Zx4c5-21" value="" style="endArrow=classic;startArrow=classic;html=1;" edge="1" parent="1">
          <mxGeometry width="50" height="50" relative="1" as="geometry">
            <mxPoint x="170" y="98" as="sourcePoint"/>
            <mxPoint x="660" y="98" as="targetPoint"/>
          </mxGeometry>
        </mxCell>
        <mxCell id="q1HZqBqBd3Bs0f9Zx4c5-22" value="" style="endArrow=none;html=1;" edge="1" parent="1">
          <mxGeometry width="50" height="50" relative="1" as="geometry">
            <mxPoint x="659.5" y="118" as="sourcePoint"/>
            <mxPoint x="659.5" y="78" as="targetPoint"/>
          </mxGeometry>
        </mxCell>
        <mxCell id="q1HZqBqBd3Bs0f9Zx4c5-23" value="UDP 数据报" style="text;html=1;strokeColor=none;fillColor=none;align=center;verticalAlign=middle;whiteSpace=wrap;rounded=0;" vertex="1" parent="1">
          <mxGeometry x="380" y="70" width="70" height="20" as="geometry"/>
        </mxCell>
        <mxCell id="q1HZqBqBd3Bs0f9Zx4c5-24" value="" style="endArrow=none;html=1;" edge="1" parent="1">
          <mxGeometry width="50" height="50" relative="1" as="geometry">
            <mxPoint x="69.5" y="76" as="sourcePoint"/>
            <mxPoint x="69.5" y="36" as="targetPoint"/>
          </mxGeometry>
        </mxCell>
        <mxCell id="q1HZqBqBd3Bs0f9Zx4c5-25" value="" style="endArrow=classic;startArrow=classic;html=1;" edge="1" parent="1">
          <mxGeometry width="50" height="50" relative="1" as="geometry">
            <mxPoint x="69.5" y="56" as="sourcePoint"/>
            <mxPoint x="659.5" y="56" as="targetPoint"/>
          </mxGeometry>
        </mxCell>
        <mxCell id="q1HZqBqBd3Bs0f9Zx4c5-26" value="" style="endArrow=none;html=1;" edge="1" parent="1">
          <mxGeometry width="50" height="50" relative="1" as="geometry">
            <mxPoint x="659" y="76" as="sourcePoint"/>
            <mxPoint x="659" y="36" as="targetPoint"/>
          </mxGeometry>
        </mxCell>
        <mxCell id="q1HZqBqBd3Bs0f9Zx4c5-27" value="IP 数据报" style="text;html=1;strokeColor=none;fillColor=none;align=center;verticalAlign=middle;whiteSpace=wrap;rounded=0;" vertex="1" parent="1">
          <mxGeometry x="360" y="30" width="70" height="20" as="geometry"/>
        </mxCell>
        <mxCell id="q1HZqBqBd3Bs0f9Zx4c5-34" value="" style="group" vertex="1" connectable="0" parent="1">
          <mxGeometry x="60" y="340" width="600" height="60" as="geometry"/>
        </mxCell>
        <mxCell id="q1HZqBqBd3Bs0f9Zx4c5-28" value="Transaction ID&lt;br&gt;（会话标识）" style="rounded=0;whiteSpace=wrap;html=1;" vertex="1" parent="q1HZqBqBd3Bs0f9Zx4c5-34">
          <mxGeometry width="100" height="60" as="geometry"/>
        </mxCell>
        <mxCell id="q1HZqBqBd3Bs0f9Zx4c5-29" value="Flags&lt;br&gt;（标志）" style="rounded=0;whiteSpace=wrap;html=1;" vertex="1" parent="q1HZqBqBd3Bs0f9Zx4c5-34">
          <mxGeometry x="100" width="100" height="60" as="geometry"/>
        </mxCell>
        <mxCell id="q1HZqBqBd3Bs0f9Zx4c5-30" value="Questions&lt;br&gt;（问题数）" style="rounded=0;whiteSpace=wrap;html=1;" vertex="1" parent="q1HZqBqBd3Bs0f9Zx4c5-34">
          <mxGeometry x="200" width="100" height="60" as="geometry"/>
        </mxCell>
        <mxCell id="q1HZqBqBd3Bs0f9Zx4c5-31" value="Answer RRs&lt;br&gt;（回答 资源记录数）" style="rounded=0;whiteSpace=wrap;html=1;" vertex="1" parent="q1HZqBqBd3Bs0f9Zx4c5-34">
          <mxGeometry x="300" width="100" height="60" as="geometry"/>
        </mxCell>
        <mxCell id="q1HZqBqBd3Bs0f9Zx4c5-32" value="Authority RRs&lt;br&gt;（授权 资源记录数）" style="rounded=0;whiteSpace=wrap;html=1;" vertex="1" parent="q1HZqBqBd3Bs0f9Zx4c5-34">
          <mxGeometry x="400" width="100" height="60" as="geometry"/>
        </mxCell>
        <mxCell id="q1HZqBqBd3Bs0f9Zx4c5-33" value="Additional RRs&lt;br&gt;（附加 资源记录数）" style="rounded=0;whiteSpace=wrap;html=1;" vertex="1" parent="q1HZqBqBd3Bs0f9Zx4c5-34">
          <mxGeometry x="500" width="100" height="60" as="geometry"/>
        </mxCell>
        <mxCell id="q1HZqBqBd3Bs0f9Zx4c5-35" value="" style="endArrow=classic;html=1;exitX=-0.025;exitY=0.988;exitDx=0;exitDy=0;exitPerimeter=0;entryX=0;entryY=0;entryDx=0;entryDy=0;entryPerimeter=0;dashed=1;" edge="1" parent="1" source="q1HZqBqBd3Bs0f9Zx4c5-2" target="q1HZqBqBd3Bs0f9Zx4c5-28">
          <mxGeometry width="50" height="50" relative="1" as="geometry">
            <mxPoint x="90" y="330" as="sourcePoint"/>
            <mxPoint x="140" y="280" as="targetPoint"/>
          </mxGeometry>
        </mxCell>
        <mxCell id="q1HZqBqBd3Bs0f9Zx4c5-37" value="" style="endArrow=classic;html=1;exitX=0.022;exitY=1.025;exitDx=0;exitDy=0;exitPerimeter=0;entryX=1;entryY=-0.05;entryDx=0;entryDy=0;entryPerimeter=0;dashed=1;" edge="1" parent="1" source="q1HZqBqBd3Bs0f9Zx4c5-3" target="q1HZqBqBd3Bs0f9Zx4c5-33">
          <mxGeometry width="50" height="50" relative="1" as="geometry">
            <mxPoint x="250" y="340" as="sourcePoint"/>
            <mxPoint x="300" y="290" as="targetPoint"/>
          </mxGeometry>
        </mxCell>
        <mxCell id="q1HZqBqBd3Bs0f9Zx4c5-38" value="&lt;font color=&quot;#ff8000&quot;&gt;&lt;b&gt;公众号@Linux元计算网络&lt;br&gt;原图可以公众号后台回复&lt;br&gt;&lt;/b&gt;&lt;/font&gt;" style="text;html=1;strokeColor=none;fillColor=none;align=center;verticalAlign=middle;whiteSpace=wrap;rounded=0;" vertex="1" parent="1">
          <mxGeometry x="160" y="300" width="160" height="20" as="geometry"/>
        </mxCell>
      </root>
    </mxGraphModel>
  </diagram>
</mxfile>
